HIERARCHY
ROOT Hips
{
	OFFSET 0.00000 0.00000 0.00000
	CHANNELS 6 Xposition Yposition Zposition Zrotation Yrotation Xrotation 
	JOINT LHipJoint
	{
		OFFSET 0 0 0
		CHANNELS 3 Zrotation Yrotation Xrotation
		JOINT LeftUpLeg
		{
			OFFSET 1.36337 -1.57426 1.11036
			CHANNELS 3 Zrotation Yrotation Xrotation
			JOINT LeftLeg
			{
				OFFSET 2.38468 -6.55187 0.00000
				CHANNELS 3 Zrotation Yrotation Xrotation
				JOINT LeftFoot
				{
					OFFSET 2.37166 -6.51609 0.00000
					CHANNELS 3 Zrotation Yrotation Xrotation
					JOINT LeftToeBase
					{
						OFFSET 0.29078 -0.79891 2.01393
						CHANNELS 3 Zrotation Yrotation Xrotation
						End Site
						{
							OFFSET 0.00000 -0.00000 1.07924
						}
					}
				}
			}
		}
	}
	JOINT RHipJoint
	{
		OFFSET 0 0 0
		CHANNELS 3 Zrotation Yrotation Xrotation
		JOINT RightUpLeg
		{
			OFFSET -1.36349 -1.57426 1.11036
			CHANNELS 3 Zrotation Yrotation Xrotation
			JOINT RightLeg
			{
				OFFSET -2.29562 -6.30717 0.00000
				CHANNELS 3 Zrotation Yrotation Xrotation
				JOINT RightFoot
				{
					OFFSET -2.40985 -6.62100 0.00000
					CHANNELS 3 Zrotation Yrotation Xrotation
					JOINT RightToeBase
					{
						OFFSET -0.23197 -0.63733 1.92232
						CHANNELS 3 Zrotation Yrotation Xrotation
						End Site
						{
							OFFSET -0.00000 -0.00000 1.01562
						}
					}
				}
			}
		}
	}
	JOINT LowerBack
	{
		OFFSET 0 0 0
		CHANNELS 3 Zrotation Yrotation Xrotation
		JOINT Spine
		{
			OFFSET -0.08565 2.03602 -0.24562
			CHANNELS 3 Zrotation Yrotation Xrotation
			JOINT Spine1
			{
				OFFSET -0.00036 2.05693 0.00216
				CHANNELS 3 Zrotation Yrotation Xrotation
				JOINT Neck
				{
					OFFSET 0 0 0
					CHANNELS 3 Zrotation Yrotation Xrotation
					JOINT Neck1
					{
						OFFSET -0.03664 1.69515 0.31789
						CHANNELS 3 Zrotation Yrotation Xrotation
						JOINT Head
						{
							OFFSET 0.00932 1.70181 -0.46013
							CHANNELS 3 Zrotation Yrotation Xrotation
							End Site
							{
								OFFSET 0.01243 1.77620 -0.19377
							}
						}
					}
				}
				JOINT LeftShoulder
				{
					OFFSET 0 0 0
					CHANNELS 3 Zrotation Yrotation Xrotation
					JOINT LeftArm
					{
						OFFSET 3.74344 0.81315 -0.36647
						CHANNELS 3 Zrotation Yrotation Xrotation
						JOINT LeftForeArm
						{
							OFFSET 4.97185 -0.00000 -0.00000
							CHANNELS 3 Zrotation Yrotation Xrotation
							JOINT LeftHand
							{
								OFFSET 3.35811 -0.00000 0.00000
								CHANNELS 3 Zrotation Yrotation Xrotation
								JOINT LeftFingerBase
								{
									OFFSET 0 0 0
									CHANNELS 3 Zrotation Yrotation Xrotation
									JOINT LeftHandIndex1
									{
										OFFSET 0.62278 -0.00000 0.00000
										CHANNELS 3 Zrotation Yrotation Xrotation
										End Site
										{
											OFFSET 0.50210 -0.00000 0.00000
										}
									}
								}
								JOINT LThumb
								{
									OFFSET 0 0 0
									CHANNELS 3 Zrotation Yrotation Xrotation
									End Site
									{
										OFFSET 0.50976 -0.00000 0.50976
									}
								}
							}
						}
					}
				}
				JOINT RightShoulder
				{
					OFFSET 0 0 0
					CHANNELS 3 Zrotation Yrotation Xrotation
					JOINT RightArm
					{
						OFFSET -3.75385 0.50666 -0.06525
						CHANNELS 3 Zrotation Yrotation Xrotation
						JOINT RightForeArm
						{
							OFFSET -4.96493 -0.00000 -0.00000
							CHANNELS 3 Zrotation Yrotation Xrotation
							JOINT RightHand
							{
								OFFSET -3.34929 -0.00000 0.00000
								CHANNELS 3 Zrotation Yrotation Xrotation
								JOINT RightFingerBase
								{
									OFFSET 0 0 0
									CHANNELS 3 Zrotation Yrotation Xrotation
									JOINT RightHandIndex1
									{
										OFFSET -0.63804 -0.00000 0.00000
										CHANNELS 3 Zrotation Yrotation Xrotation
										End Site
										{
											OFFSET -0.51441 -0.00000 0.00000
										}
									}
								}
								JOINT RThumb
								{
									OFFSET 0 0 0
									CHANNELS 3 Zrotation Yrotation Xrotation
									End Site
									{
										OFFSET -0.52226 -0.00000 0.52226
									}
								}
							}
						}
					}
				}
			}
		}
	}
}
MOTION
Frames: 10
Frame Time: .0083333
-26.6003 16.4747 -14.1777 0 0 0 0 0 0 -21 0 0 0 0 0 0 0 0 0 0 0 0 0 0 21 0 0 0 0 0 0 0 0 0 0 0 0 0 0 0 0 0 0 0 0 0 0 -16 0 0 21 0 0 11 0 0 0 -8 0 0 0 0 0 0 0 0 0 0 0 0 0 0 0 0 0 0 0 0 8 0 0 0 0 0 0 0 0 0 0 0 0 0 0 0 0 0
-26.6003 16.4747 -14.1777 162.7510 74.8964 169.2640 0.0000 0.0000 0.0000 -25.0598 -7.7837 -7.8244 2.0680 9.0062 25.8148 1.6720 0.8862 -24.7871 0.0964 2.0024 5.5124 0.0000 0.0000 0.0000 12.9300 0.8833 -10.5448 -2.0127 -8.8925 25.4596 -1.8573 -4.6317 -27.7455 -0.2015 -2.8906 7.9744 -7.3167 0.0049 -9.0231 -0.6424 0.8788 0.9124 3.5660 0.2149 5.9456 0.6033 4.9050 -19.4630 -3.7579 9.5557 32.4170 0.1951 3.9851 14.7163 -0.0000 0.0000 0.0000 -93.0093 -2.3782 36.9423 11.1632 -18.5379 -1.8275 -0.0000 0.0000 -4.4271 20.8315 -7.9116 -2.9980 -7.1250 0.0000 -0.0000 -4.3581 21.5323 2.4614 -0.0000 0.0000 0.0000 89.6135 -2.8439 21.3044 -15.5456 24.9006 -3.4524 0.0000 -0.0000 -9.5879 -10.0633 -30.9533 5.2154 7.1250 -0.0000 -0.0000 24.5775 -59.6052 -9.0986
-26.6047 16.4791 -14.1760 163.7560 75.1404 170.2670 0.0000 0.0000 0.0000 -24.7171 -7.8175 -7.9744 2.1062 9.0839 26.0582 1.6867 1.0071 -24.9395 0.0723 1.7344 4.7721 0.0000 0.0000 0.0000 13.2947 1.0845 -10.3959 -1.9684 -8.7999 25.1715 -1.8242 -4.6741 -27.5427 -0.2109 -2.9564 8.1574 -6.9266 0.0792 -9.1850 -0.6183 0.9498 1.0342 3.3851 0.2504 6.1624 0.1088 4.5025 -20.0373 -3.3977 8.9925 32.5515 0.3368 3.7083 14.8382 0.0000 -0.0000 0.0000 -93.1882 -2.9185 35.6816 10.9539 -18.2176 -1.7615 -0.0000 0.0000 -4.6882 20.3616 -8.6695 -3.2019 -7.1250 0.0000 -0.0000 -4.7033 20.7562 2.7404 0.0000 -0.0000 0.0000 89.6579 -2.5716 21.4764 -15.5029 24.8419 -3.4344 0.0000 -0.0000 -9.7503 -9.8920 -30.9748 5.1285 7.1250 -0.0000 -0.0000 24.7712 -59.5852 -9.1638
-26.6083 16.4843 -14.1732 165.0100 75.4078 171.5630 0.0000 0.0000 0.0000 -24.2975 -7.9481 -8.1689 2.1483 9.1685 26.3237 1.7333 1.0719 -25.3011 0.0685 1.6890 4.6468 0.0000 0.0000 0.0000 13.7575 1.5199 -10.1985 -1.9194 -8.6962 24.8494 -1.8114 -4.9300 -27.5880 -0.2277 -3.0711 8.4768 -6.5049 0.1257 -9.5228 -0.5718 0.9931 1.2264 3.2097 0.2664 6.5587 -0.3518 4.1792 -20.4902 -3.0659 8.5094 32.4423 0.4672 3.4724 14.8323 -0.0000 -0.0000 0.0000 -93.0953 -3.1055 37.1607 11.2888 -18.7296 -1.8676 -0.0000 0.0000 -5.6374 22.0052 -5.7418 -2.3153 -7.1250 0.0000 -0.0000 -3.4883 23.7921 1.7878 -0.0000 -0.0000 0.0000 89.7530 -2.1357 21.5698 -15.4763 24.8054 -3.4233 0.0000 -0.0000 -9.6972 -9.9955 -31.0086 5.1880 7.1250 -0.0000 -0.0000 24.6932 -59.6394 -9.1651
-26.6129 16.4859 -14.1700 166.3280 75.6254 172.9040 0.0000 0.0000 0.0000 -23.8798 -8.1693 -8.3386 2.1960 9.2629 26.6211 1.7850 1.1417 -25.6968 0.0767 1.7861 4.9149 0.0000 0.0000 0.0000 14.2183 1.9697 -9.9724 -1.8637 -8.5762 24.4782 -1.7836 -5.2973 -27.5926 -0.2432 -3.1734 8.7619 -6.2667 0.0845 -10.1421 -0.3739 0.9554 1.6362 3.2920 0.2152 7.3551 -0.9411 3.8799 -20.9696 -2.8784 8.1368 32.1137 0.5767 3.2488 14.7429 0.0000 -0.0000 0.0000 -93.4520 -4.2996 34.6273 10.5959 -17.6662 -1.6512 -0.0000 0.0000 -4.8218 19.7660 -10.1011 -3.6063 -7.1250 0.0000 -0.0000 -5.1438 19.2836 3.1692 0.0000 -0.0000 0.0000 89.5612 -1.3238 21.8411 -15.4304 24.7422 -3.4040 0.0000 -0.0000 -9.7792 -9.8589 -31.0083 5.1160 7.1250 -0.0000 -0.0000 24.8332 -59.6078 -9.2020
-26.6210 16.4922 -14.1645 167.6530 75.8567 174.2730 0.0000 0.0000 0.0000 -23.4277 -8.1072 -8.5899 2.2325 9.3344 26.8470 1.8101 1.0375 -25.8356 0.0800 1.8249 5.0220 0.0000 0.0000 0.0000 14.6806 2.4968 -9.7920 -1.8193 -8.4790 24.1787 -1.7465 -5.7534 -27.5895 -0.2589 -3.2738 9.0420 -5.7973 0.1396 -10.1512 -0.3751 0.9677 1.6242 3.0283 0.2410 7.3504 -1.1522 3.5243 -20.9888 -2.8059 7.6148 31.9030 0.5395 3.0093 14.6308 -0.0000 0.0000 0.0000 -93.3073 -4.4990 35.2814 10.6455 -17.7429 -1.6663 -0.0000 0.0000 -6.0326 20.2468 -9.3021 -3.4120 -7.1250 0.0000 -0.0000 -4.7917 20.0938 2.8637 -0.0000 0.0000 0.0000 89.7509 -1.2079 21.8574 -15.3718 24.6615 -3.3795 0.0000 -0.0000 -9.9879 -9.9129 -30.4918 5.0675 7.1250 -0.0000 -0.0000 24.3542 -59.1556 -8.7449
-26.6365 16.5042 -14.1592 169.8860 76.2263 176.6540 0.0000 0.0000 0.0000 -22.7187 -8.0870 -8.9827 2.2629 9.3935 27.0341 1.8158 1.1035 -25.9004 0.0663 1.6618 4.5718 0.0000 0.0000 0.0000 15.3872 3.2621 -9.7418 -1.7808 -8.3937 23.9165 -1.7066 -6.2421 -27.5935 -0.2701 -3.3429 9.2350 -4.7326 0.3636 -9.8425 -0.5851 1.1168 1.2891 2.2230 0.3828 6.8187 -0.9831 3.1847 -20.7111 -2.7270 6.9923 31.7976 0.4187 2.7831 14.5151 -0.0000 -0.0000 0.0000 -92.2671 -3.4333 37.9522 11.3513 -18.8248 -1.8877 -0.0000 0.0000 -7.3023 21.8535 -6.2665 -2.5066 -7.1250 0.0000 -0.0000 -3.6018 23.2356 1.8923 -0.0000 -0.0000 0.0000 90.3906 -1.5748 21.6840 -15.3203 24.5904 -3.3581 0.0000 -0.0000 -10.4189 -10.3398 -29.7807 5.1780 7.1250 -0.0000 -0.0000 23.3590 -58.6067 -8.0511
-26.6393 16.5070 -14.1610 169.3830 76.3254 176.2140 0.0000 0.0000 0.0000 -22.8380 -8.0537 -9.0945 2.2774 9.4214 27.1227 1.8128 1.1471 -25.8954 0.0508 1.4540 3.9990 0.0000 0.0000 0.0000 15.2505 3.0902 -9.7910 -1.7534 -8.3323 23.7280 -1.6777 -6.1166 -27.3206 -0.2409 -3.1585 8.7203 -4.5598 0.3808 -9.6033 -0.7990 1.1157 1.0847 1.8956 0.4059 6.4718 -1.0458 2.9251 -20.6321 -2.5896 6.5768 31.8217 0.4066 2.6182 14.4934 0.0000 0.0000 0.0000 -92.0535 -3.1900 37.0941 11.2136 -18.6150 -1.8435 -0.0000 0.0000 -6.0932 21.5515 -6.5217 -2.5685 -7.1250 0.0000 -0.0000 -3.8253 22.9767 2.0330 0.0000 0.0000 0.0000 90.6609 -1.8577 21.8698 -15.3202 24.5902 -3.3580 0.0000 -0.0000 -10.7379 -10.7265 -29.3512 5.3048 7.1250 -0.0000 -0.0000 22.6402 -58.2993 -7.6173
-26.6456 16.5147 -14.1583 169.4510 76.6232 176.3070 0.0000 0.0000 0.0000 -22.7813 -7.9971 -9.1378 2.2861 9.4381 27.1756 1.8312 1.2211 -26.0526 0.0546 1.5083 4.1486 0.0000 0.0000 0.0000 15.3241 3.3534 -9.7355 -1.7331 -8.2865 23.5878 -1.6677 -6.1681 -27.2810 -0.2224 -3.0356 8.3780 -4.7460 0.3845 -9.9490 -0.6100 1.1560 1.3357 2.2124 0.3985 6.9268 -1.3865 2.6665 -20.9716 -2.6474 6.3135 31.6876 0.3962 2.4434 14.4976 0.0000 0.0000 0.0000 -92.8313 -4.2112 34.3507 10.5297 -17.5638 -1.6312 -0.0000 0.0000 -3.0557 21.2510 -7.6195 -2.9519 -7.1250 0.0000 -0.0000 -4.0510 21.8193 2.2607 0.0000 0.0000 0.0000 90.3564 -1.3811 22.0942 -15.3279 24.6009 -3.3613 0.0000 -0.0000 -10.7065 -10.7843 -29.0682 5.2873 7.1250 -0.0000 -0.0000 22.3729 -58.0524 -7.3868
-26.6545 16.5231 -14.1497 169.0520 77.6540 175.9560 0.0000 0.0000 0.0000 -22.7649 -7.6499 -9.2273 2.2831 9.4325 27.1577 1.8711 1.6799 -26.5074 0.0756 1.7740 4.8816 0.0000 0.0000 0.0000 15.3200 3.9575 -9.8499 -1.7272 -8.2730 23.5465 -1.6367 -5.9053 -26.9107 -0.2233 -3.0418 8.3952 -4.7306 0.6831 -9.9791 -0.6328 1.5561 1.3585 2.2423 0.5946 6.9401 -1.4950 2.4282 -21.2407 -2.6143 5.9883 31.7391 0.3728 2.2849 14.5725 -0.0000 -0.0000 0.0000 -92.3958 -4.0310 36.0073 10.8674 -18.0848 -1.7345 -0.0000 0.0000 -4.6883 21.3153 -7.4088 -2.8804 -7.1250 0.0000 -0.0000 -4.0026 22.0406 2.2133 -0.0000 -0.0000 0.0000 90.4312 -1.2440 22.3289 -15.3991 24.6992 -3.3910 0.0000 -0.0000 -10.4162 -10.8604 -29.6814 5.4269 7.1250 -0.0000 -0.0000 22.7511 -58.6310 -7.8407
